<svg xmlns="http://www.w3.org/2000/svg" viewBox="0 0 64 64" role="img" aria-labelledby="title desc">
  <title id="title">Australian Capital Climate Comfort icon</title>
  <desc id="desc">A compact icon showing Australia inside a climate comfort gauge with sun, rain and heat colours.</desc>
  <defs>
    <linearGradient id="paper" x1="8" x2="56" y1="4" y2="60" gradientUnits="userSpaceOnUse">
      <stop offset="0" stop-color="#fffdf8"/>
      <stop offset="1" stop-color="#ebe2d2"/>
    </linearGradient>
    <linearGradient id="comfort" x1="9" x2="55" y1="13" y2="51" gradientUnits="userSpaceOnUse">
      <stop offset="0" stop-color="#d8a83d"/>
      <stop offset=".45" stop-color="#1f766f"/>
      <stop offset="1" stop-color="#4b8bbe"/>
    </linearGradient>
    <filter id="soft-shadow" x="-20%" y="-20%" width="140%" height="150%">
      <feDropShadow dx="0" dy="2" stdDeviation="1.8" flood-color="#1f2b32" flood-opacity=".18"/>
    </filter>
  </defs>

  <rect width="64" height="64" rx="14" fill="url(#paper)"/>
  <rect x="4.5" y="4.5" width="55" height="55" rx="11.5" fill="none" stroke="#d8d0c3"/>

  <circle cx="32" cy="32" r="21" fill="none" stroke="#dcebe6" stroke-width="6"/>
  <path d="M16 46a21 21 0 0 1 0-28" fill="none" stroke="#4b8bbe" stroke-width="6" stroke-linecap="round"/>
  <path d="M16 18a21 21 0 0 1 32 0" fill="none" stroke="#d8a83d" stroke-width="6" stroke-linecap="round"/>
  <path d="M48 18a21 21 0 0 1 1.5 25" fill="none" stroke="#c95a3c" stroke-width="6" stroke-linecap="round"/>
  <path d="M49.5 43a21 21 0 0 1-33.5 3" fill="none" stroke="url(#comfort)" stroke-width="6" stroke-linecap="round"/>

  <path
    d="M17.6 35.4c1.7-5.2 5.8-8.5 11.5-9.8 2.9-.7 5.2-2.3 8.4-1.1 2.8 1.1 4.2 3.2 7.3 3.1 3.4-.1 6.7 1.8 6.5 5-.1 2.4 3.2 3.2 3.7 5.2.6 2.3-1.8 4-4.3 3.4-3.1-.8-4.6 1.3-6.8 3-2.4 1.9-5 2.1-7.6.9-2.8-1.3-4.9.2-7.5 1.4-3.5 1.6-6.7.4-7.8-3.1-.9-2.9-4.7-3.9-3.4-8z"
    fill="#1f766f"
    filter="url(#soft-shadow)"/>
  <path d="M45.8 48.3c1.4-.5 2.9.1 3.5 1.2.4.8-.1 1.7-1.1 1.9-1.3.3-2.9-.1-3.6-.9-.6-.8 0-1.8 1.2-2.2z" fill="#1f766f"/>

  <circle cx="22" cy="22" r="4" fill="#d8a83d"/>
  <path d="M19.2 21.1c2.2 0 4.1 1 5.2 2.7-1 1.4-2.7 2.3-4.6 2.3-2.1 0-3.9-1-5-2.6 1-1.5 2.6-2.4 4.4-2.4z" fill="#fffdf8" opacity=".9"/>
  <path d="M44.8 14.5c2.2 3.4 5.2 6.1 5.2 9.1a5.2 5.2 0 0 1-10.4 0c0-3 3-5.7 5.2-9.1z" fill="#4b8bbe"/>
  <path d="M47.9 22.7a2.9 2.9 0 0 1-2.9 2.9" fill="none" stroke="#fffdf8" stroke-width="1.8" stroke-linecap="round" opacity=".82"/>

  <circle cx="32" cy="32" r="2.6" fill="#fffdf8"/>
  <path d="M32 32l8.4-8.4" fill="none" stroke="#fffdf8" stroke-width="2.6" stroke-linecap="round"/>
  <path d="M32 32l-7.5 6.2" fill="none" stroke="#fffdf8" stroke-width="2.6" stroke-linecap="round"/>
</svg>
